<svg xmlns="http://www.w3.org/2000/svg" width="27.38" height="29.889" viewBox="0 0 27.38 29.889">
  <path id="business" d="M27.375,28.907,24.97,7.274a.924.924,0,0,0-.936-.8H19.515V5.5A5.678,5.678,0,0,0,13.69,0,5.678,5.678,0,0,0,7.865,5.5v.973H3.346a.924.924,0,0,0-.936.8L0,28.907a.86.86,0,0,0,.237.688.968.968,0,0,0,.7.294h25.5a.967.967,0,0,0,.7-.294.858.858,0,0,0,.237-.688ZM9.748,5.5A3.842,3.842,0,0,1,13.69,1.78,3.842,3.842,0,0,1,17.632,5.5v.973H9.748ZM1.987,28.11,4.193,8.256H7.865v1.96a.943.943,0,0,0,1.883,0V8.256h7.884v1.96a.943.943,0,0,0,1.883,0V8.256h3.671L25.393,28.11Zm0,0" transform="translate(0 0)"/>
</svg>
